<svg width="309" height="57" viewBox="0 0 309 57" fill="none" xmlns="http://www.w3.org/2000/svg">
<path d="M17.712 56.32C15.2373 56.32 12.4427 56.1067 9.328 55.68C7.62133 55.4667 6.448 55.0187 5.808 54.336C5.168 53.6533 4.89067 52.544 4.976 51.008C5.27467 46.784 5.97867 41.5787 7.088 35.392C8.19733 29.1627 9.54133 23.168 11.12 17.408C11.4187 16.3413 12.016 15.5947 12.912 15.168C13.808 14.7413 14.9813 14.528 16.432 14.528C19.0347 14.528 20.336 15.2533 20.336 16.704C20.336 17.3013 20.208 17.984 19.952 18.752C18.8427 22.1653 17.7333 26.752 16.624 32.512C15.5147 38.2293 14.7253 43.6907 14.256 48.896C15.536 49.024 16.9867 49.088 18.608 49.088C26.0747 49.088 31.6427 46.8267 35.312 42.304C39.024 37.7813 40.88 31.744 40.88 24.192C40.88 19.1147 39.4293 15.1893 36.528 12.416C33.6267 9.64266 29.5307 8.256 24.24 8.256C20.8267 8.256 17.4347 8.78933 14.064 9.856C10.736 10.9227 7.728 12.3307 5.04 14.08C4.48533 14.464 3.888 14.656 3.248 14.656C2.52267 14.656 1.94667 14.3573 1.52 13.76C1.09333 13.12 0.88 12.352 0.88 11.456C0.88 10.432 1.05067 9.6 1.392 8.96C1.73333 8.27733 2.30933 7.65866 3.12 7.104C6.064 5.09866 9.52 3.584 13.488 2.56C17.456 1.49333 21.2747 0.959999 24.944 0.959999C30.1493 0.959999 34.6507 1.87733 38.448 3.712C42.2453 5.504 45.168 8.14933 47.216 11.648C49.264 15.1467 50.288 19.3707 50.288 24.32C50.288 30.7627 49.008 36.3947 46.448 41.216C43.888 45.9947 40.1547 49.7067 35.248 52.352C30.3413 54.9973 24.496 56.32 17.712 56.32ZM163.053 56.512C157.378 56.512 152.834 55.4453 149.421 53.312C146.008 51.136 144.301 47.8293 144.301 43.392C144.301 41.0453 144.706 39.2533 145.517 38.016C146.328 36.7787 147.522 36.16 149.101 36.16C150.253 36.16 151.192 36.4587 151.917 37.056C152.642 37.6533 153.005 38.4213 153.005 39.36C153.005 40.2133 152.941 40.96 152.813 41.6C152.813 41.7707 152.77 42.0693 152.685 42.496C152.642 42.9227 152.621 43.3707 152.621 43.84C152.621 45.76 153.581 47.1893 155.501 48.128C157.464 49.0667 160.194 49.536 163.693 49.536C167.32 49.536 170.157 48.896 172.205 47.616C174.253 46.2933 175.277 44.4587 175.277 42.112C175.277 40.6613 174.808 39.424 173.869 38.4C172.93 37.3333 171.757 36.4587 170.349 35.776C168.941 35.0507 166.957 34.176 164.397 33.152C161.112 31.872 158.424 30.656 156.333 29.504C154.285 28.352 152.514 26.7947 151.021 24.832C149.57 22.8267 148.845 20.352 148.845 17.408C148.845 14.336 149.656 11.6053 151.277 9.216C152.941 6.82666 155.309 4.97066 158.381 3.648C161.496 2.32533 165.144 1.664 169.325 1.664C172.44 1.664 175.298 2.13333 177.901 3.072C180.504 3.968 182.573 5.35466 184.109 7.232C185.688 9.10933 186.477 11.4133 186.477 14.144C186.477 16.832 186.072 18.8587 185.261 20.224C184.45 21.5893 183.256 22.272 181.677 22.272C180.568 22.272 179.629 21.9307 178.861 21.248C178.136 20.5653 177.773 19.7547 177.773 18.816C177.773 18.0053 177.837 17.2587 177.965 16.576C178.093 15.296 178.157 14.4853 178.157 14.144C178.157 12.352 177.282 10.9867 175.533 10.048C173.784 9.10933 171.608 8.64 169.005 8.64C165.336 8.64 162.52 9.32267 160.557 10.688C158.637 12.0107 157.677 13.888 157.677 16.32C157.677 17.9413 158.168 19.328 159.149 20.48C160.173 21.632 161.432 22.592 162.925 23.36C164.418 24.128 166.509 25.0453 169.197 26.112C172.44 27.4347 175.042 28.6293 177.005 29.696C178.968 30.7627 180.632 32.2133 181.997 34.048C183.405 35.8827 184.109 38.144 184.109 40.832C184.109 45.8667 182.189 49.7493 178.349 52.48C174.552 55.168 169.453 56.512 163.053 56.512Z" fill="#D90B1C"/>
<path d="M70.508 56C66.0707 56 62.2093 55.232 58.924 53.696C55.6813 52.1173 54.06 49.3653 54.06 45.44C54.06 44.032 54.4867 42.6667 55.34 41.344C56.1933 40.0213 57.452 38.9547 59.116 38.144C60.78 37.2907 62.8067 36.864 65.196 36.864C67.0307 36.864 68.588 36.9493 69.868 37.12C71.148 37.2907 72.62 37.76 74.284 38.528C75.948 39.296 77.676 40.512 79.468 42.176C78.7853 39.232 77.7613 36.6507 76.396 34.432C75.0307 32.2133 73.4947 30.5067 71.788 29.312C70.124 28.0747 68.4813 27.456 66.86 27.456C66.092 27.456 65.3667 27.6053 64.684 27.904C64.044 28.16 63.2547 28.544 62.316 29.056C61.2493 29.7387 60.46 30.08 59.948 30.08C59.7347 30.08 59.5427 30.016 59.372 29.888C59.244 29.7173 59.18 29.5253 59.18 29.312C59.18 27.6053 59.9267 26.2827 61.42 25.344C62.956 24.4053 64.812 23.9787 66.988 24.064C69.9747 24.2347 72.7053 25.5147 75.18 27.904C77.6547 30.2507 79.596 33.1733 81.004 36.672C82.4547 40.1707 83.18 43.6053 83.18 46.976C83.18 47.5307 83.1373 48.32 83.052 49.344L81.004 49.216C79.3827 45.9307 77.292 43.6053 74.732 42.24C72.2147 40.832 69.676 40.128 67.116 40.128C63.8307 40.128 61.484 40.6187 60.076 41.6C58.668 42.5813 57.964 44.0107 57.964 45.888C57.964 47.8507 58.9453 49.4293 60.908 50.624C62.8707 51.8187 65.388 52.416 68.46 52.416C70.1667 52.416 71.532 52.3307 72.556 52.16C73.58 51.9467 74.6467 51.6693 75.756 51.328C76.652 51.0293 77.4413 50.816 78.124 50.688C78.8067 50.56 79.6813 50.496 80.748 50.496C81.9427 50.496 82.6893 50.5813 82.988 50.752C83.3293 50.9227 83.5 51.3067 83.5 51.904C83.5 52.3307 82.6253 52.864 80.876 53.504C79.1267 54.144 77.164 54.72 74.988 55.232C72.812 55.744 71.3187 56 70.508 56ZM98.9265 56C98.4998 56.0853 98.2225 56.128 98.0945 56.128C96.7718 56.128 95.8545 55.1467 95.3425 53.184C94.8732 51.2213 94.6385 48.4693 94.6385 44.928C94.6385 43.4773 94.6812 41.216 94.7665 38.144C94.8518 36.2667 94.8945 34.8587 94.8945 33.92C89.6465 33.92 87.0225 33.3227 87.0225 32.128C87.0225 31.744 87.0652 31.4453 87.1505 31.232C87.2785 31.0187 87.5345 30.912 87.9185 30.912L94.8945 30.464C94.8518 28.3733 94.7452 26.0907 94.5745 23.616C94.4038 21.3973 94.2972 19.3493 94.2545 17.472C94.2545 17.0027 94.4465 16.6827 94.8305 16.512C95.2145 16.2987 95.6198 16.192 96.0465 16.192C96.5585 16.192 96.9852 16.4693 97.3265 17.024C97.6678 17.536 97.8385 18.0693 97.8385 18.624L98.2865 30.336L103.599 30.592C104.409 30.5067 105.092 30.656 105.647 31.04C106.244 31.424 106.564 32.064 106.607 32.96C105.711 33.344 104.729 33.5787 103.663 33.664C102.596 33.7493 100.804 33.792 98.2865 33.792C98.2865 37.76 98.4785 44.288 98.8625 53.376C98.8625 54.3147 98.8625 54.976 98.8625 55.36C98.9052 55.7013 98.9265 55.9147 98.9265 56ZM126.571 56C122.133 56 118.272 55.232 114.987 53.696C111.744 52.1173 110.123 49.3653 110.123 45.44C110.123 44.032 110.549 42.6667 111.403 41.344C112.256 40.0213 113.515 38.9547 115.179 38.144C116.843 37.2907 118.869 36.864 121.259 36.864C123.093 36.864 124.65 36.9493 125.931 37.12C127.211 37.2907 128.683 37.76 130.347 38.528C132.011 39.296 133.739 40.512 135.531 42.176C134.848 39.232 133.824 36.6507 132.459 34.432C131.093 32.2133 129.557 30.5067 127.851 29.312C126.187 28.0747 124.544 27.456 122.923 27.456C122.155 27.456 121.429 27.6053 120.747 27.904C120.107 28.16 119.317 28.544 118.379 29.056C117.312 29.7387 116.523 30.08 116.01 30.08C115.797 30.08 115.605 30.016 115.435 29.888C115.307 29.7173 115.243 29.5253 115.243 29.312C115.243 27.6053 115.989 26.2827 117.483 25.344C119.019 24.4053 120.875 23.9787 123.051 24.064C126.037 24.2347 128.768 25.5147 131.243 27.904C133.717 30.2507 135.659 33.1733 137.067 36.672C138.517 40.1707 139.243 43.6053 139.243 46.976C139.243 47.5307 139.2 48.32 139.115 49.344L137.067 49.216C135.445 45.9307 133.355 43.6053 130.795 42.24C128.277 40.832 125.739 40.128 123.179 40.128C119.893 40.128 117.547 40.6187 116.139 41.6C114.731 42.5813 114.027 44.0107 114.027 45.888C114.027 47.8507 115.008 49.4293 116.97 50.624C118.933 51.8187 121.451 52.416 124.523 52.416C126.229 52.416 127.595 52.3307 128.619 52.16C129.643 51.9467 130.709 51.6693 131.819 51.328C132.715 51.0293 133.504 50.816 134.187 50.688C134.869 50.56 135.744 50.496 136.811 50.496C138.005 50.496 138.752 50.5813 139.051 50.752C139.392 50.9227 139.562 51.3067 139.562 51.904C139.562 52.3307 138.688 52.864 136.939 53.504C135.189 54.144 133.227 54.72 131.051 55.232C128.875 55.744 127.381 56 126.571 56ZM204.804 56.064C199.812 56.064 195.929 54.9333 193.156 52.672C190.425 50.368 189.06 46.8267 189.06 42.048C189.06 39.616 189.657 37.312 190.852 35.136C192.089 32.9173 193.732 31.1467 195.78 29.824C197.871 28.4587 200.111 27.776 202.5 27.776C204.932 27.776 207.001 28.3093 208.708 29.376C210.415 30.4 211.268 31.8933 211.268 33.856C211.268 35.2213 211.012 36.2027 210.5 36.8C210.031 37.3547 209.497 37.632 208.9 37.632C208.9 35.584 208.345 33.92 207.236 32.64C206.127 31.36 204.548 30.72 202.5 30.72C200.452 30.72 198.681 31.2747 197.188 32.384C195.695 33.4507 194.543 34.88 193.732 36.672C192.964 38.4213 192.58 40.256 192.58 42.176C192.58 46.2293 193.945 48.9813 196.676 50.432C199.449 51.8827 203.097 52.608 207.62 52.608C209.156 52.608 211.161 52.5227 213.636 52.352C213.721 52.352 213.913 52.4373 214.212 52.608C214.511 52.7787 214.745 52.8853 214.916 52.928V53.312C214.916 54.5493 213.828 55.3173 211.652 55.616C209.476 55.9147 207.193 56.064 204.804 56.064ZM223.13 56C221.38 52.5867 219.994 48.576 218.97 43.968C217.988 39.36 217.498 35.3707 217.498 32C217.498 30.6773 217.796 29.824 218.394 29.44C218.735 29.2267 218.991 29.12 219.161 29.12C219.46 29.12 219.674 29.3547 219.802 29.824C219.972 30.2933 220.143 31.1467 220.314 32.384L220.634 34.688C221.103 32.384 221.999 30.5707 223.322 29.248C224.687 27.8827 226.351 27.2 228.314 27.2C230.49 27.2 232.111 27.6267 233.178 28.48C234.244 29.2907 234.778 30.656 234.778 32.576C232.644 31.552 230.703 31.04 228.954 31.04C227.29 31.04 225.86 31.488 224.666 32.384C223.471 33.28 222.639 34.6027 222.17 36.352C221.786 37.5467 221.594 38.6773 221.594 39.744C221.594 40.896 221.743 41.984 222.042 43.008C222.383 43.9893 222.895 45.2053 223.578 46.656C224.218 48.1493 224.708 49.4293 225.05 50.496C225.434 51.5627 225.647 52.7147 225.69 53.952C225.69 54.6773 225.434 55.2107 224.922 55.552C224.41 55.8507 223.812 56 223.13 56ZM241.598 56.064C240.617 56.064 239.827 54.6347 239.23 51.776C238.633 48.8747 238.249 46.3787 238.078 44.288C237.907 42.1973 237.673 38.8907 237.374 34.368C237.331 33.6427 237.31 32.704 237.31 31.552C237.31 30.1013 237.417 29.0987 237.63 28.544C237.886 27.9893 238.291 27.712 238.846 27.712C239.315 27.712 239.678 27.8187 239.934 28.032C240.233 28.2027 240.489 28.5013 240.702 28.928L240.638 31.488C240.638 34.2187 240.766 36.8 241.022 39.232C241.321 41.664 241.769 44.928 242.366 49.024C242.707 50.816 242.942 52.288 243.07 53.44C243.155 54.0373 243.049 54.6347 242.75 55.232C242.451 55.7867 242.067 56.064 241.598 56.064ZM239.998 20.864C239.059 20.864 238.355 20.5013 237.886 19.776C237.459 19.0507 237.246 18.1547 237.246 17.088C237.246 16.6187 237.267 16.2773 237.31 16.064C237.267 15.3813 237.651 15.04 238.462 15.04C239.059 15.04 239.657 15.1893 240.254 15.488C240.894 15.744 241.086 15.936 240.83 16.064C241.257 17.1733 241.47 18.048 241.47 18.688C241.47 19.2427 241.342 19.6907 241.086 20.032C240.83 20.3307 240.467 20.608 239.998 20.864ZM266.026 56.064C262.613 56.064 259.925 55.4027 257.962 54.08C255.999 52.7147 254.549 50.6667 253.61 47.936C252.671 45.1627 252.053 41.4507 251.754 36.8L249.898 25.984C249.727 24.4053 249.493 22.8693 249.194 21.376C248.895 19.8827 248.746 18.816 248.746 18.176C248.746 17.28 249.002 16.6187 249.514 16.192C250.026 15.7227 250.943 15.4027 252.266 15.232C252.522 17.3653 252.693 18.9653 252.778 20.032C253.247 24.1707 253.631 27.3493 253.93 29.568C254.271 31.744 254.698 34.0267 255.21 36.416C258.495 34.9653 261.653 34.24 264.682 34.24C267.413 34.24 269.845 34.816 271.978 35.968C274.111 37.0773 275.775 38.656 276.97 40.704C278.165 42.7093 278.762 44.9707 278.762 47.488C278.762 50.432 277.461 52.608 274.858 54.016C272.298 55.3813 269.354 56.064 266.026 56.064ZM275.178 47.616C275.221 47.3173 275.242 46.8907 275.242 46.336C275.242 43.3067 274.197 41.0453 272.106 39.552C270.058 38.0587 267.135 37.312 263.338 37.312C260.991 37.312 259.157 37.7813 257.834 38.72C256.554 39.616 255.914 40.8533 255.914 42.432C255.914 46.0587 256.895 48.704 258.858 50.368C260.863 52.032 263.914 52.864 268.01 52.864C269.973 52.864 271.615 52.416 272.938 51.52C274.261 50.624 275.007 49.3227 275.178 47.616ZM297.727 56C294.996 56 292.479 55.4667 290.175 54.4C287.871 53.3333 286.036 51.8187 284.671 49.856C283.305 47.8933 282.623 45.632 282.623 43.072C282.623 40.2133 283.156 37.5467 284.223 35.072C285.289 32.5547 286.847 30.5493 288.895 29.056C290.985 27.52 293.417 26.752 296.191 26.752C299.092 26.752 301.289 27.6907 302.783 29.568C304.276 31.4027 304.98 33.728 304.895 36.544C304.895 39.0613 303.892 40.9813 301.887 42.304C299.924 43.6267 297.407 44.288 294.335 44.288C293.865 44.288 293.161 44.2453 292.223 44.16C290.687 43.9893 289.599 43.7547 288.959 43.456C288.319 43.1573 287.999 42.56 287.999 41.664C287.999 41.3653 288.084 41.152 288.255 41.024C288.425 40.8533 288.767 40.768 289.279 40.768C289.833 40.768 290.815 40.896 292.223 41.152C293.588 41.408 294.804 41.536 295.871 41.536C299.796 41.536 301.759 39.8293 301.759 36.416C301.759 34.368 301.375 32.7467 300.607 31.552C299.881 30.3573 298.58 29.76 296.703 29.76C294.655 29.76 292.82 30.3147 291.199 31.424C289.577 32.4907 288.319 33.8987 287.423 35.648C286.569 37.3973 286.143 39.2533 286.143 41.216C286.143 44.5867 287.081 47.36 288.959 49.536C290.836 51.6693 293.737 52.736 297.663 52.736C298.132 52.736 298.921 52.6933 300.031 52.608C300.5 52.5653 301.076 52.4373 301.759 52.224C302.441 52.0107 302.932 51.8613 303.231 51.776C305.065 51.136 306.409 50.816 307.263 50.816C307.903 50.816 308.393 50.9867 308.735 51.328C307.668 52.9493 306.068 54.144 303.935 54.912C301.844 55.6373 299.775 56 297.727 56Z" fill="#FAF6F6"/>
</svg>
