<svg width="24" height="27" viewBox="0 0 24 27" fill="none" xmlns="http://www.w3.org/2000/svg">
<path d="M7.71978 20.0766C7.12725 20.0766 6.4581 20.0255 5.71234 19.9234C5.3037 19.8723 5.02276 19.765 4.86952 19.6016C4.71628 19.4381 4.64988 19.1725 4.67031 18.8047C4.74182 17.7934 4.91039 16.547 5.176 15.0657C5.44162 13.5742 5.76342 12.1388 6.14141 10.7597C6.21292 10.5043 6.35594 10.3255 6.57048 10.2233C6.78501 10.1212 7.06595 10.0701 7.4133 10.0701C8.03647 10.0701 8.34806 10.2438 8.34806 10.5911C8.34806 10.7341 8.31741 10.8976 8.25611 11.0815C7.9905 11.8987 7.72488 12.997 7.45927 14.3761C7.19365 15.7451 7.00466 17.0527 6.89228 18.299C7.19876 18.3297 7.5461 18.345 7.93431 18.345C9.7221 18.345 11.0553 17.8036 11.9339 16.7207C12.8226 15.6378 13.267 14.1922 13.267 12.384C13.267 11.1683 12.9197 10.2284 12.225 9.56439C11.5303 8.90036 10.5496 8.56834 9.28282 8.56834C8.46554 8.56834 7.65337 8.69604 6.84631 8.95144C6.04947 9.20683 5.32924 9.54396 4.68563 9.96282C4.55283 10.0548 4.4098 10.1007 4.25656 10.1007C4.08289 10.1007 3.94498 10.0292 3.84282 9.8862C3.74066 9.73296 3.68958 9.54907 3.68958 9.33453C3.68958 9.08935 3.73044 8.89014 3.81217 8.7369C3.8939 8.57345 4.03181 8.42531 4.22592 8.29251C4.93082 7.81236 5.75831 7.44969 6.70839 7.20451C7.65848 6.94911 8.57281 6.82141 9.45138 6.82141C10.6977 6.82141 11.7755 7.04105 12.6847 7.48034C13.594 7.90941 14.2937 8.5428 14.7841 9.38051C15.2745 10.2182 15.5197 11.2296 15.5197 12.4146C15.5197 13.9573 15.2132 15.3058 14.6002 16.4602C13.9873 17.6044 13.0934 18.4931 11.9185 19.1265C10.7437 19.7599 9.34411 20.0766 7.71978 20.0766ZM17.689 20.046C17.1794 20.046 16.7714 19.9502 16.465 19.7586C16.1585 19.5633 16.0052 19.2664 16.0052 18.8679C16.0052 18.6572 16.0416 18.4963 16.1144 18.3852C16.1872 18.2741 16.2945 18.2186 16.4362 18.2186C16.5397 18.2186 16.6239 18.2454 16.6891 18.299C16.7542 18.3527 16.7868 18.4216 16.7868 18.5059C16.7868 18.5825 16.781 18.6496 16.7695 18.707C16.7695 18.7224 16.7657 18.7492 16.758 18.7875C16.7542 18.8258 16.7523 18.866 16.7523 18.9082C16.7523 19.0806 16.8385 19.2089 17.0109 19.2932C17.1871 19.3775 17.4323 19.4196 17.7464 19.4196C18.0721 19.4196 18.3268 19.3621 18.5107 19.2472C18.6946 19.1285 18.7865 18.9637 18.7865 18.753C18.7865 18.6228 18.7444 18.5117 18.6601 18.4197C18.5758 18.3239 18.4705 18.2454 18.3441 18.1841C18.2176 18.119 18.0395 18.0405 17.8096 17.9485C17.5146 17.8336 17.2733 17.7244 17.0856 17.621C16.9017 17.5175 16.7427 17.3777 16.6086 17.2015C16.4784 17.0214 16.4132 16.7992 16.4132 16.5349C16.4132 16.259 16.486 16.0139 16.6316 15.7993C16.781 15.5848 16.9936 15.4181 17.2695 15.2994C17.5491 15.1806 17.8767 15.1212 18.2521 15.1212C18.5318 15.1212 18.7885 15.1634 19.0221 15.2477C19.2558 15.3281 19.4416 15.4526 19.5795 15.6212C19.7213 15.7897 19.7922 15.9966 19.7922 16.2418C19.7922 16.4832 19.7558 16.6651 19.683 16.7877C19.6102 16.9103 19.5029 16.9716 19.3612 16.9716C19.2616 16.9716 19.1773 16.941 19.1083 16.8797C19.0432 16.8184 19.0106 16.7456 19.0106 16.6613C19.0106 16.5885 19.0164 16.5215 19.0279 16.4602C19.0394 16.3452 19.0451 16.2725 19.0451 16.2418C19.0451 16.0809 18.9666 15.9583 18.8095 15.874C18.6525 15.7897 18.4571 15.7476 18.2234 15.7476C17.8939 15.7476 17.6411 15.8089 17.4648 15.9315C17.2925 16.0503 17.2063 16.2188 17.2063 16.4372C17.2063 16.5828 17.2503 16.7073 17.3384 16.8107C17.4304 16.9141 17.5434 17.0003 17.6775 17.0693C17.8115 17.1383 17.9993 17.2206 18.2406 17.3164C18.5318 17.4352 18.7655 17.5424 18.9417 17.6382C19.1179 17.734 19.2673 17.8642 19.3899 18.029C19.5163 18.1937 19.5795 18.3967 19.5795 18.6381C19.5795 19.0901 19.4072 19.4388 19.0624 19.6839C18.7214 19.9253 18.2636 20.046 17.689 20.046Z" fill="#D90B1C"/>
</svg>
